<svg width="18" height="15" viewBox="0 0 18 15" fill="none" xmlns="http://www.w3.org/2000/svg">
<path d="M9.62591 3.625C9.62591 4.4538 9.29667 5.24866 8.71062 5.83471C8.12457 6.42076 7.32972 6.75 6.50091 6.75C5.67211 6.75 4.87726 6.42076 4.29121 5.83471C3.70515 5.24866 3.37591 4.4538 3.37591 3.625C3.37591 2.7962 3.70515 2.00134 4.29121 1.41529C4.87726 0.82924 5.67211 0.5 6.50091 0.5C7.32972 0.5 8.12457 0.82924 8.71062 1.41529C9.29667 2.00134 9.62591 2.7962 9.62591 3.625ZM12.6259 13.0075C12.7634 13.685 12.1909 14.25 11.5009 14.25H1.50091C0.809664 14.25 0.238415 13.685 0.373415 13.0075C0.660976 11.5947 1.42796 10.3247 2.5445 9.41251C3.66104 8.50033 5.05851 8.00206 6.50029 8.00206C7.94206 8.00206 9.33954 8.50033 10.4561 9.41251C11.5726 10.3247 12.3396 11.5947 12.6272 13.0075M16.5034 13H14.5159C14.5062 12.8783 14.4895 12.7573 14.4659 12.6375C14.2276 11.458 13.7292 10.3464 13.0072 9.38375C13.9259 9.13087 14.9065 9.23702 15.7499 9.68064C16.5933 10.1243 17.2363 10.8721 17.5484 11.7725C17.7734 12.425 17.1947 13 16.5034 13ZM14.0009 8C14.664 8 15.2998 7.73661 15.7687 7.26777C16.2375 6.79893 16.5009 6.16304 16.5009 5.5C16.5009 4.83696 16.2375 4.20107 15.7687 3.73223C15.2998 3.26339 14.664 3 14.0009 3C13.3379 3 12.702 3.26339 12.2331 3.73223C11.7643 4.20107 11.5009 4.83696 11.5009 5.5C11.5009 6.16304 11.7643 6.79893 12.2331 7.26777C12.702 7.73661 13.3379 8 14.0009 8Z" fill="white"/>
</svg>
