<svg width="32" height="32" viewBox="0 0 32 32" fill="none" xmlns="http://www.w3.org/2000/svg">
<rect width="32" height="32" rx="16" fill="#E2242E"/>
<path d="M16.6259 11.625C16.6259 12.4538 16.2967 13.2487 15.7106 13.8347C15.1246 14.4208 14.3297 14.75 13.5009 14.75C12.6721 14.75 11.8773 14.4208 11.2912 13.8347C10.7052 13.2487 10.3759 12.4538 10.3759 11.625C10.3759 10.7962 10.7052 10.0013 11.2912 9.41529C11.8773 8.82924 12.6721 8.5 13.5009 8.5C14.3297 8.5 15.1246 8.82924 15.7106 9.41529C16.2967 10.0013 16.6259 10.7962 16.6259 11.625ZM19.6259 21.0075C19.7634 21.685 19.1909 22.25 18.5009 22.25H8.50091C7.80966 22.25 7.23841 21.685 7.37341 21.0075C7.66098 19.5947 8.42796 18.3247 9.5445 17.4125C10.661 16.5003 12.0585 16.0021 13.5003 16.0021C14.9421 16.0021 16.3395 16.5003 17.4561 17.4125C18.5726 18.3247 19.3396 19.5947 19.6272 21.0075M23.5034 21H21.5159C21.5062 20.8783 21.4895 20.7573 21.4659 20.6375C21.2276 19.458 20.7292 18.3464 20.0072 17.3838C20.9259 17.1309 21.9065 17.237 22.7499 17.6806C23.5933 18.1243 24.2363 18.8721 24.5484 19.7725C24.7734 20.425 24.1947 21 23.5034 21ZM21.0009 16C21.664 16 22.2998 15.7366 22.7687 15.2678C23.2375 14.7989 23.5009 14.163 23.5009 13.5C23.5009 12.837 23.2375 12.2011 22.7687 11.7322C22.2998 11.2634 21.664 11 21.0009 11C20.3379 11 19.702 11.2634 19.2331 11.7322C18.7643 12.2011 18.5009 12.837 18.5009 13.5C18.5009 14.163 18.7643 14.7989 19.2331 15.2678C19.702 15.7366 20.3379 16 21.0009 16Z" fill="white"/>
</svg>
