<svg width="16" height="16" viewBox="0 0 16 16" fill="none" xmlns="http://www.w3.org/2000/svg">
    <path d="M4.6665 12.6663V11.333H5.99984V12.6663H4.6665ZM7.33317 12.6663V11.333H8.6665V12.6663H7.33317ZM9.99984 12.6663V11.333H11.3332V12.6663H9.99984ZM4.6665 9.99967V8.66634H5.99984V9.99967H4.6665ZM7.33317 9.99967V8.66634H8.6665V9.99967H7.33317ZM9.99984 9.99967V8.66634H11.3332V9.99967H9.99984ZM4.6665 7.33301V5.99967H5.99984V7.33301H4.6665ZM7.33317 7.33301V5.99967H8.6665V7.33301H7.33317ZM9.99984 7.33301V5.99967H11.3332V7.33301H9.99984ZM4.6665 4.66634V3.33301H5.99984V4.66634H4.6665ZM7.33317 4.66634V3.33301H8.6665V4.66634H7.33317ZM9.99984 4.66634V3.33301H11.3332V4.66634H9.99984Z" fill="#666666"/>
    </svg>
    