<svg width="20" height="20" viewBox="0 0 20 20" fill="none" xmlns="http://www.w3.org/2000/svg">
<path fill-rule="evenodd" clip-rule="evenodd" d="M11.8743 2.08333C11.8743 2.02808 11.8524 1.97509 11.8133 1.93602C11.7743 1.89695 11.7213 1.875 11.666 1.875H5.83268C5.22489 1.875 4.642 2.11644 4.21223 2.54621C3.78246 2.97598 3.54102 3.55888 3.54102 4.16667V15.8333C3.54102 16.4411 3.78246 17.024 4.21223 17.4538C4.642 17.8836 5.22489 18.125 5.83268 18.125H14.166C14.7738 18.125 15.3567 17.8836 15.7865 17.4538C16.2162 17.024 16.4577 16.4411 16.4577 15.8333V7.6225C16.4577 7.56725 16.4357 7.51426 16.3967 7.47519C16.3576 7.43612 16.3046 7.41417 16.2493 7.41417H12.4993C12.3336 7.41417 12.1746 7.34832 12.0574 7.23111C11.9402 7.1139 11.8743 6.95493 11.8743 6.78917V2.08333ZM12.4993 10.2083C12.6651 10.2083 12.8241 10.2742 12.9413 10.3914C13.0585 10.5086 13.1243 10.6676 13.1243 10.8333C13.1243 10.9991 13.0585 11.1581 12.9413 11.2753C12.8241 11.3925 12.6651 11.4583 12.4993 11.4583H7.49935C7.33359 11.4583 7.17462 11.3925 7.05741 11.2753C6.9402 11.1581 6.87435 10.9991 6.87435 10.8333C6.87435 10.6676 6.9402 10.5086 7.05741 10.3914C7.17462 10.2742 7.33359 10.2083 7.49935 10.2083H12.4993ZM12.4993 13.5417C12.6651 13.5417 12.8241 13.6075 12.9413 13.7247C13.0585 13.8419 13.1243 14.0009 13.1243 14.1667C13.1243 14.3324 13.0585 14.4914 12.9413 14.6086C12.8241 14.7258 12.6651 14.7917 12.4993 14.7917H7.49935C7.33359 14.7917 7.17462 14.7258 7.05741 14.6086C6.9402 14.4914 6.87435 14.3324 6.87435 14.1667C6.87435 14.0009 6.9402 13.8419 7.05741 13.7247C7.17462 13.6075 7.33359 13.5417 7.49935 13.5417H12.4993Z" fill="white"/>
<path d="M13.125 2.35322C13.125 2.19988 13.2858 2.10238 13.405 2.19822C13.5058 2.27988 13.5967 2.37488 13.6742 2.48322L16.185 5.98072C16.2417 6.06072 16.18 6.16405 16.0817 6.16405H13.3333C13.2781 6.16405 13.2251 6.1421 13.186 6.10303C13.1469 6.06396 13.125 6.01097 13.125 5.95572V2.35322Z" fill="white"/>
</svg>
