<svg width="17" height="16" viewBox="0 0 17 16" fill="none" xmlns="http://www.w3.org/2000/svg">
    <g clip-path="url(#clip0_656_1225)">
    <path d="M13.8575 5.57154C13.8573 5.49166 13.8554 5.4118 13.8518 5.332V0.803344L12.5999 2.05534C11.5752 0.801115 10.0164 0 8.27039 0C6.4534 0 4.83918 0.867279 3.81885 2.21049L5.87098 4.2842C6.07191 3.91298 6.35652 3.59364 6.70226 3.35148C7.06055 3.07193 7.56816 2.84328 8.27039 2.84328C8.35524 2.84328 8.42075 2.85325 8.46881 2.87187C9.33891 2.94059 10.0931 3.42072 10.5371 4.11764L9.08442 5.57023C10.9244 5.56302 13.0028 5.55882 13.8574 5.57121" fill="black"/>
    <path d="M8.23756 0C8.15768 0.000226637 8.07781 0.00212869 7.99802 0.00570492H3.46936L4.72136 1.2577C3.46713 2.28236 2.66602 3.84118 2.66602 5.58715C2.66602 7.4042 3.53329 9.01842 4.87651 10.0388L6.95021 7.98669C6.57898 7.78574 6.25965 7.50111 6.01749 7.15534C5.73795 6.79711 5.50929 6.28944 5.50929 5.58721C5.50929 5.50243 5.51926 5.43692 5.53788 5.38879C5.60661 4.51875 6.08674 3.76459 6.78365 3.32059L8.23624 4.77318C8.22903 2.93318 8.22477 0.854688 8.23723 0.000131148" fill="black"/>
    <path d="M2.66602 5.5874C2.66628 5.66766 2.66811 5.74747 2.67172 5.82694V10.3556L3.92372 9.1036C4.94838 10.3578 6.5072 11.1589 8.25316 11.1589C10.0702 11.1589 11.6844 10.2917 12.7048 8.94845L10.6527 6.87475C10.4518 7.24597 10.1671 7.56531 9.82136 7.80747C9.46313 8.08701 8.95546 8.31566 8.25323 8.31566C8.16844 8.31566 8.10293 8.3057 8.0548 8.28701C7.18477 8.21835 6.43061 7.73816 5.98661 7.0413L7.4392 5.58865C5.5992 5.59586 3.5207 5.60012 2.66615 5.58773" fill="#ABABAB"/>
    <path d="M3.60887 13.3223C3.47281 13.3223 3.35078 13.3481 3.24284 13.3997C3.13571 13.4495 3.0417 13.5237 2.96828 13.6162C2.89438 13.7101 2.83746 13.8239 2.7976 13.9576C2.75891 14.0902 2.7395 14.2386 2.7395 14.4029V14.8763C2.7395 15.0417 2.75891 15.1907 2.7976 15.3232C2.83746 15.4558 2.89379 15.569 2.96658 15.6629C3.0393 15.7567 3.12724 15.8289 3.23051 15.8793C3.33373 15.9298 3.44992 15.9551 3.57897 15.9551C3.71156 15.9551 3.82769 15.9356 3.92743 15.897C4.02835 15.8583 4.11281 15.8025 4.18081 15.7297C4.24887 15.6558 4.30107 15.5667 4.33746 15.4623C4.37504 15.3579 4.39727 15.2393 4.40435 15.1068H4.07878C4.07058 15.2088 4.05648 15.2963 4.03655 15.369C4.01661 15.4406 3.98724 15.4998 3.94855 15.5467C3.91097 15.5925 3.86173 15.6265 3.80068 15.6488C3.74087 15.6699 3.66691 15.6805 3.57897 15.6805C3.48514 15.6805 3.40533 15.66 3.33963 15.6189C3.27392 15.5766 3.22055 15.5192 3.1795 15.4464C3.13963 15.3737 3.11025 15.2886 3.0915 15.1912C3.07392 15.0939 3.06507 14.9889 3.06507 14.8762V14.3993C3.06507 14.2785 3.07563 14.1688 3.09674 14.0702C3.11904 13.9717 3.15248 13.8878 3.19707 13.8186C3.24166 13.7493 3.29799 13.696 3.36606 13.6584C3.43405 13.6197 3.51504 13.6004 3.60887 13.6004C3.6875 13.6004 3.75497 13.6121 3.81123 13.6356C3.86689 13.6573 3.91557 13.6938 3.95202 13.7411C3.9896 13.788 4.01832 13.8479 4.03825 13.9206C4.05825 13.9934 4.07169 14.0802 4.07878 14.1811H4.40435C4.39845 14.0427 4.37681 13.9201 4.33924 13.8133C4.30166 13.7065 4.24946 13.6168 4.18258 13.544C4.11569 13.4712 4.03419 13.4162 3.93799 13.3786C3.84291 13.3411 3.73327 13.3223 3.60887 13.3223ZM11.5564 13.3223C11.4203 13.3223 11.2983 13.3481 11.1903 13.3997C11.0832 13.4495 10.9892 13.5237 10.9158 13.6162C10.8419 13.7101 10.785 13.8239 10.7451 13.9576C10.7064 14.0902 10.687 14.2386 10.687 14.4029V14.8763C10.687 15.0417 10.7064 15.1907 10.7451 15.3232C10.7849 15.4558 10.8413 15.569 10.9141 15.6629C10.9868 15.7567 11.0747 15.8289 11.178 15.8793C11.2813 15.9298 11.3974 15.9551 11.5264 15.9551C11.659 15.9551 11.7752 15.9356 11.8749 15.897C11.9758 15.8583 12.0603 15.8025 12.1283 15.7297C12.1963 15.6558 12.2485 15.5667 12.2849 15.4623C12.3225 15.3579 12.3448 15.2393 12.3518 15.1068H12.0263C12.0181 15.2088 12.004 15.2963 11.984 15.369C11.9641 15.4406 11.9348 15.4998 11.896 15.5467C11.8585 15.5925 11.8092 15.6265 11.7482 15.6488C11.6883 15.6699 11.6144 15.6805 11.5264 15.6805C11.4326 15.6805 11.3528 15.66 11.2871 15.6189C11.2214 15.5766 11.168 15.5192 11.127 15.4464C11.0871 15.3737 11.0578 15.2886 11.039 15.1912C11.0214 15.0939 11.0126 14.9889 11.0126 14.8762V14.3993C11.0126 14.2785 11.0231 14.1688 11.0443 14.0702C11.0666 13.9717 11.1 13.8878 11.1446 13.8186C11.1892 13.7493 11.2455 13.696 11.3135 13.6584C11.3816 13.6197 11.4625 13.6004 11.5563 13.6004C11.635 13.6004 11.7024 13.6121 11.7588 13.6356C11.815 13.6579 11.862 13.693 11.8996 13.7411C11.9371 13.788 11.9658 13.8479 11.9858 13.9206C12.0057 13.9934 12.0192 14.0802 12.0263 14.1811H12.3518C12.3459 14.0427 12.3243 13.9201 12.2867 13.8133C12.2491 13.7065 12.1969 13.6168 12.1301 13.544C12.0632 13.4712 11.9817 13.4162 11.8855 13.3786C11.7904 13.3411 11.6807 13.3223 11.5563 13.3223L11.5564 13.3223ZM5.46389 13.3575L4.63851 15.9198H4.96933L5.16822 15.2511H6.03405L6.23642 15.9198H6.5673L5.74015 13.3575H5.46389ZM6.91569 13.3575V15.9198H7.23773V14.9167H7.73222C7.85543 14.9167 7.96455 14.8996 8.05956 14.8657C8.15464 14.8305 8.23438 14.78 8.29891 14.7143C8.36461 14.6486 8.41386 14.5676 8.44671 14.4714C8.48081 14.3741 8.49779 14.2638 8.49779 14.1406C8.49779 14.0268 8.48074 13.9224 8.44671 13.8274C8.41392 13.7312 8.3652 13.6484 8.30068 13.5792C8.23615 13.5088 8.15576 13.4543 8.05956 13.4156C7.96448 13.3769 7.85543 13.3575 7.73222 13.3575L6.91569 13.3575ZM8.74415 13.3575V13.6356H9.41642V15.9198H9.73838V13.6356H10.4125V13.3575H8.74415ZM12.7865 13.3575V15.9198H13.1085V14.7354H14.1398V15.9198H14.4636V13.3575H14.1398V14.4592H13.1085V13.3575H12.7865ZM15.6849 13.3575L14.8596 15.9198H15.1904L15.3893 15.2511H16.2551L16.4575 15.9198H16.7883L15.9612 13.3575H15.6849ZM7.23766 13.6356H7.73222C7.81084 13.6356 7.87766 13.6496 7.93287 13.6778C7.98914 13.706 8.03491 13.7435 8.07012 13.7905C8.1073 13.8391 8.13422 13.8947 8.14927 13.9541C8.16691 14.0151 8.17569 14.0785 8.17569 14.1442C8.17569 14.217 8.16691 14.2838 8.14927 14.3448C8.13419 14.402 8.10722 14.4554 8.07012 14.5014C8.03491 14.5448 7.98914 14.5788 7.93281 14.6034C7.87773 14.6281 7.81084 14.6404 7.73215 14.6404H7.23773L7.23766 13.6356ZM5.60107 13.808L5.9513 14.973H5.25268L5.60107 13.808ZM15.8222 13.808L16.1723 14.973H15.4737L15.8222 13.808ZM0.66317 13.9805C0.582186 13.9805 0.51235 14.001 0.453727 14.0421C0.396219 14.0832 0.348153 14.1389 0.309465 14.2093L0.304153 14.0157H0.00146484V15.9198H0.31294V14.5577C0.342317 14.4767 0.383957 14.4128 0.437924 14.3659C0.493006 14.3189 0.562842 14.2954 0.647301 14.2954C0.674317 14.2954 0.698383 14.2966 0.719432 14.299C0.740612 14.3002 0.763498 14.3031 0.788088 14.3078L0.786383 14.0051C0.779023 14.0019 0.771324 13.9995 0.763432 13.998C0.753152 13.9942 0.742582 13.9913 0.731825 13.9892C0.7196 13.9868 0.707254 13.9851 0.694842 13.984C0.684425 13.9818 0.673817 13.9806 0.66317 13.9804V13.9805ZM1.71025 13.9805C1.61989 13.9805 1.53255 13.9964 1.44802 14.028C1.36356 14.0597 1.28848 14.1119 1.22278 14.1846C1.15825 14.2562 1.10605 14.3501 1.06619 14.4662C1.02625 14.5812 1.00632 14.7226 1.00632 14.8903V15.105C1.00632 15.2505 1.02337 15.3766 1.0574 15.4834C1.09137 15.5901 1.14002 15.6788 1.20343 15.7492C1.26816 15.8185 1.34838 15.8716 1.43753 15.904C1.52901 15.9381 1.63163 15.9551 1.74546 15.9551C1.82756 15.9551 1.90087 15.9469 1.96546 15.9304C2.03117 15.914 2.0892 15.8929 2.13969 15.8671C2.1869 15.8424 2.23068 15.8116 2.26992 15.7756C2.30448 15.7436 2.33572 15.7082 2.36317 15.67L2.20127 15.4729C2.17543 15.5046 2.14789 15.5339 2.11858 15.5608C2.0892 15.5867 2.05694 15.6095 2.02179 15.6295C1.98501 15.6489 1.94599 15.6636 1.9056 15.6735C1.85892 15.6845 1.81107 15.6899 1.7631 15.6893C1.61878 15.6893 1.50789 15.643 1.43045 15.5503C1.35419 15.4576 1.31609 15.3092 1.31609 15.1051V15.061H2.37904V14.8798C2.37904 14.7343 2.36671 14.6058 2.34205 14.4944C2.3174 14.3829 2.27812 14.2891 2.22415 14.2128C2.17163 14.1378 2.09991 14.0782 2.01648 14.0404C1.93202 14.0004 1.82992 13.9805 1.71025 13.9805ZM1.71025 14.248C1.77832 14.248 1.83465 14.2603 1.87924 14.285C1.92334 14.3091 1.95989 14.3451 1.98481 14.3888C2.01176 14.4333 2.03117 14.4867 2.04291 14.549C2.05576 14.6099 2.06402 14.6774 2.0675 14.7513V14.7935H1.31779C1.32251 14.6868 1.33543 14.5982 1.35648 14.5278C1.37766 14.4574 1.4052 14.4017 1.43924 14.3606C1.47445 14.3184 1.51491 14.2891 1.56068 14.2726C1.60873 14.2558 1.65934 14.2475 1.71025 14.248V14.248Z" fill="black"/>
    </g>
    <defs>
    <clipPath id="clip0_656_1225">
    <rect width="16.79" height="16" fill="white"/>
    </clipPath>
    </defs>
    </svg>
    