<svg width="16" height="16" viewBox="0 0 16 16" fill="none" xmlns="http://www.w3.org/2000/svg">
    <path d="M2.66683 13.3337C2.30016 13.3337 1.98639 13.2032 1.7255 12.9423C1.46461 12.6814 1.33394 12.3674 1.3335 12.0003V4.00033C1.3335 3.63366 1.46416 3.31988 1.7255 3.05899C1.98683 2.7981 2.30061 2.66744 2.66683 2.66699H13.3335C13.7002 2.66699 14.0142 2.79766 14.2755 3.05899C14.5368 3.32033 14.6673 3.6341 14.6668 4.00033V12.0003C14.6668 12.367 14.5364 12.681 14.2755 12.9423C14.0146 13.2037 13.7006 13.3341 13.3335 13.3337H2.66683ZM2.66683 12.0003H13.3335V5.33366H2.66683V12.0003ZM7.30016 11.0337L4.9335 8.66699L5.90016 7.70033L7.30016 9.10033L10.1002 6.30033L11.0668 7.26699L7.30016 11.0337Z" fill="black"/>
    </svg>
    