<svg width="16" height="16" viewBox="0 0 16 16" fill="none" xmlns="http://www.w3.org/2000/svg">
    <path d="M7.99984 2.66699C6.58535 2.66699 5.2288 3.2289 4.2286 4.22909C3.22841 5.22928 2.6665 6.58584 2.6665 8.00033C2.6665 9.41481 3.22841 10.7714 4.2286 11.7716C5.2288 12.7718 6.58535 13.3337 7.99984 13.3337C9.41433 13.3337 10.7709 12.7718 11.7711 11.7716C12.7713 10.7714 13.3332 9.41481 13.3332 8.00033C13.3332 6.58584 12.7713 5.22928 11.7711 4.22909C10.7709 3.2289 9.41433 2.66699 7.99984 2.66699Z" stroke="black" stroke-width="1.33333" stroke-linecap="round" stroke-linejoin="round"/>
    <path d="M8 6C7.46957 6 6.96086 6.21071 6.58579 6.58579C6.21071 6.96086 6 7.46957 6 8C6 8.53043 6.21071 9.03914 6.58579 9.41421C6.96086 9.78929 7.46957 10 8 10C8.53043 10 9.03914 9.78929 9.41421 9.41421C9.78929 9.03914 10 8.53043 10 8C10 7.46957 9.78929 6.96086 9.41421 6.58579C9.03914 6.21071 8.53043 6 8 6Z" stroke="black" stroke-width="1.33333" stroke-linecap="round" stroke-linejoin="round"/>
    </svg>
    