<svg width="16" height="16" viewBox="0 0 16 16" fill="none" xmlns="http://www.w3.org/2000/svg">
    <path fill-rule="evenodd" clip-rule="evenodd" d="M2.27676 11.75C2.30792 11.75 2.33908 11.7469 2.37023 11.7422L4.9982 11.2812C5.02936 11.2749 5.05895 11.2609 5.08076 11.2375L11.7044 4.61448C11.7189 4.60008 11.7303 4.58296 11.7382 4.56412C11.746 4.54527 11.75 4.52507 11.75 4.50467C11.75 4.48427 11.746 4.46407 11.7382 4.44523C11.7303 4.42638 11.7189 4.40927 11.7044 4.39486L9.10762 1.79517C9.07803 1.76558 9.03906 1.75 8.99701 1.75C8.95497 1.75 8.91602 1.76558 8.88642 1.79517L2.26275 8.41822C2.23939 8.44159 2.22536 8.46962 2.21914 8.50078L1.75803 11.1285C1.72844 11.3014 1.78139 11.4712 1.90447 11.5942C2.00728 11.6955 2.13812 11.75 2.27676 11.75ZM3.08525 10.4151L3.32983 9.0257L8.99701 3.35903L10.142 4.50389L4.4748 10.1706L3.08525 10.4151ZM9.35666 8.87387C9.78933 8.64244 10.2519 8.54806 10.6933 8.63139C11.199 8.72686 11.6264 9.04598 11.927 9.55961C12.3954 10.3598 12.2652 11.1585 11.6382 11.8136C11.3636 12.1005 10.9965 12.3607 10.5445 12.5995L10.54 12.6018L10.5532 12.6059C10.7587 12.6677 10.9764 12.7012 11.2023 12.7029L11.2206 12.703C12.1748 12.703 12.7985 12.3576 13.1782 11.6425C13.3239 11.3681 13.6644 11.2638 13.9388 11.4094C14.2132 11.5551 14.3175 11.8957 14.1718 12.1701C13.5892 13.2672 12.5766 13.828 11.2206 13.828C10.4755 13.828 9.78406 13.5932 9.21769 13.1816L9.20119 13.1695L9.17994 13.1769C8.45837 13.4269 7.63725 13.6448 6.75228 13.8321L6.7173 13.8395C5.95837 13.9991 5.19766 14.1266 4.54301 14.2138C4.23506 14.2548 3.95219 14.0385 3.91117 13.7305C3.87016 13.4226 4.08655 13.1397 4.39448 13.0987C5.02255 13.015 5.75583 12.8921 6.48573 12.7386C7.15447 12.5979 7.78278 12.4396 8.35069 12.2645L8.35434 12.2633L8.34753 12.2525C8.09028 11.8392 7.94351 11.3864 7.93906 10.9519L7.93895 10.9315C7.93895 10.1517 8.557 9.30161 9.35666 8.87387ZM10.4846 9.73686C10.3168 9.70519 10.108 9.74778 9.88728 9.86588C9.42562 10.1128 9.06395 10.6103 9.06395 10.9315C9.06395 11.216 9.20284 11.5588 9.45005 11.8649L9.45376 11.8695L9.47287 11.8615C10.0849 11.6024 10.5429 11.326 10.8155 11.046L10.8255 11.0357C11.1182 10.7299 11.1597 10.4757 10.9561 10.1279C10.8146 9.88608 10.6588 9.76975 10.4846 9.73686Z" fill="black"/>
    </svg>
    