<svg width="16" height="16" viewBox="0 0 16 16" fill="none" xmlns="http://www.w3.org/2000/svg">
    <g clip-path="url(#clip0_656_1278)">
    <path fill-rule="evenodd" clip-rule="evenodd" d="M10.9867 7.99977C10.9867 8.50898 10.7844 8.99734 10.4243 9.35741C10.0642 9.71748 9.57588 9.91977 9.06667 9.91977C8.55745 9.91977 8.06909 9.71748 7.70902 9.35741C7.34895 8.99734 7.14667 8.50898 7.14667 7.99977C7.14667 7.49055 7.34895 7.00219 7.70902 6.64212C8.06909 6.28205 8.55745 6.07977 9.06667 6.07977C9.57588 6.07977 10.0642 6.28205 10.4243 6.64212C10.7844 7.00219 10.9867 7.49055 10.9867 7.99977ZM11.952 8.5331C11.8272 9.20719 11.4702 9.81629 10.9432 10.2547C10.4161 10.6931 9.75222 10.9331 9.06667 10.9331C8.38112 10.9331 7.7172 10.6931 7.19015 10.2547C6.6631 9.81629 6.30618 9.20719 6.18133 8.5331H0.533333C0.391885 8.5331 0.256229 8.47691 0.15621 8.37689C0.0561903 8.27687 0 8.14122 0 7.99977C0 7.85832 0.0561903 7.72266 0.15621 7.62264C0.256229 7.52262 0.391885 7.46643 0.533333 7.46643H6.18133C6.30618 6.79234 6.6631 6.18324 7.19015 5.74484C7.7172 5.30644 8.38112 5.06641 9.06667 5.06641C9.75222 5.06641 10.4161 5.30644 10.9432 5.74484C11.4702 6.18324 11.8272 6.79234 11.952 7.46643H15.4667C15.6081 7.46643 15.7438 7.52262 15.8438 7.62264C15.9438 7.72266 16 7.85832 16 7.99977C16 8.14122 15.9438 8.27687 15.8438 8.37689C15.7438 8.47691 15.6081 8.5331 15.4667 8.5331H11.952Z" fill="black"/>
    </g>
    <defs>
    <clipPath id="clip0_656_1278">
    <rect width="16" height="16" fill="white"/>
    </clipPath>
    </defs>
    </svg>
    