<svg width="16" height="16" viewBox="0 0 16 16" fill="none" xmlns="http://www.w3.org/2000/svg">
    <path d="M8.00016 13.333C9.41465 13.333 10.7712 12.7711 11.7714 11.7709C12.7716 10.7707 13.3335 9.41416 13.3335 7.99967C13.3335 6.58519 12.7716 5.22863 11.7714 4.22844C10.7712 3.22824 9.41465 2.66634 8.00016 2.66634C6.58567 2.66634 5.22912 3.22824 4.22893 4.22844C3.22873 5.22863 2.66683 6.58519 2.66683 7.99967C2.66683 9.41416 3.22873 10.7707 4.22893 11.7709C5.22912 12.7711 6.58567 13.333 8.00016 13.333ZM8.00016 1.33301C8.87564 1.33301 9.74255 1.50545 10.5514 1.84048C11.3602 2.17551 12.0952 2.66657 12.7142 3.28563C13.3333 3.90469 13.8243 4.63961 14.1594 5.44845C14.4944 6.25729 14.6668 7.1242 14.6668 7.99967C14.6668 9.76779 13.9645 11.4635 12.7142 12.7137C11.464 13.964 9.76827 14.6663 8.00016 14.6663C4.3135 14.6663 1.3335 11.6663 1.3335 7.99967C1.3335 6.23156 2.03588 4.53587 3.28612 3.28563C4.53636 2.03539 6.23205 1.33301 8.00016 1.33301ZM8.3335 4.66634V8.16634L11.3335 9.94634L10.8335 10.7663L7.3335 8.66634V4.66634H8.3335Z" fill="black"/>
    </svg>
    