<svg width="16" height="16" viewBox="0 0 16 16" fill="none" xmlns="http://www.w3.org/2000/svg">
    <path d="M1.3335 8.00033C1.3335 5.48633 1.3335 4.22899 2.11483 3.44833C2.8955 2.66699 4.15283 2.66699 6.66683 2.66699H9.3335C11.8475 2.66699 13.1048 2.66699 13.8855 3.44833C14.6668 4.22899 14.6668 5.48633 14.6668 8.00033C14.6668 10.5143 14.6668 11.7717 13.8855 12.5523C13.1048 13.3337 11.8475 13.3337 9.3335 13.3337H6.66683C4.15283 13.3337 2.8955 13.3337 2.11483 12.5523C1.3335 11.7717 1.3335 10.5143 1.3335 8.00033Z" stroke="black"/>
    <path d="M5.5 10.3337C5.5 10.4663 5.55268 10.5934 5.64645 10.6872C5.74022 10.781 5.86739 10.8337 6 10.8337C6.13261 10.8337 6.25979 10.781 6.35355 10.6872C6.44732 10.5934 6.5 10.4663 6.5 10.3337H5.5ZM7.5 6.95033C7.5 7.08294 7.55268 7.21011 7.64645 7.30388C7.74022 7.39765 7.86739 7.45033 8 7.45033C8.13261 7.45033 8.25979 7.39765 8.35355 7.30388C8.44732 7.21011 8.5 7.08294 8.5 6.95033H7.5ZM3.5 6.95033C3.5 7.08294 3.55268 7.21011 3.64645 7.30388C3.74022 7.39765 3.86739 7.45033 4 7.45033C4.13261 7.45033 4.25979 7.39765 4.35356 7.30388C4.44732 7.21011 4.5 7.08294 4.5 6.95033H3.5ZM4.66667 9.83366C4.53406 9.83366 4.40688 9.88634 4.31311 9.98011C4.21935 10.0739 4.16667 10.2011 4.16667 10.3337C4.16667 10.4663 4.21935 10.5934 4.31311 10.6872C4.40688 10.781 4.53406 10.8337 4.66667 10.8337V9.83366ZM7.33333 10.8337C7.46594 10.8337 7.59312 10.781 7.68689 10.6872C7.78066 10.5934 7.83333 10.4663 7.83333 10.3337C7.83333 10.2011 7.78066 10.0739 7.68689 9.98011C7.59312 9.88634 7.46594 9.83366 7.33333 9.83366V10.8337ZM5.28334 6.16699H6V5.16699H5.28334V6.16699ZM6 6.16699H6.71667V5.16699H6V6.16699ZM6.5 10.3337V5.66699H5.5V10.3337H6.5ZM6.71667 6.16699C7.02 6.16699 7.20067 6.16766 7.33133 6.18433C7.44933 6.19899 7.45533 6.21899 7.44467 6.20899L8.108 5.46166C7.908 5.28299 7.674 5.21899 7.45467 5.19166C7.248 5.16633 6.994 5.16699 6.71667 5.16699V6.16699ZM8.5 6.95033C8.5 6.67299 8.50067 6.41899 8.47534 6.21233C8.448 5.99299 8.384 5.75899 8.20533 5.55899L7.458 6.22299C7.448 6.21166 7.468 6.21766 7.48267 6.33633C7.49934 6.46633 7.5 6.64699 7.5 6.95033H8.5ZM7.44467 6.20899C7.44936 6.21318 7.45315 6.21763 7.45733 6.22233L8.20533 5.55899C8.17485 5.52465 8.14235 5.49215 8.108 5.46166L7.44467 6.20899ZM5.28334 5.16699C5.006 5.16699 4.752 5.16633 4.54533 5.19166C4.326 5.21899 4.092 5.28299 3.892 5.46166L4.556 6.20899C4.54467 6.21899 4.55067 6.19899 4.66934 6.18433C4.79934 6.16766 4.98 6.16699 5.28334 6.16699V5.16699ZM4.5 6.95033C4.5 6.64699 4.50067 6.46633 4.51734 6.33566C4.532 6.21766 4.552 6.21166 4.542 6.22233L3.79467 5.55899C3.616 5.75899 3.552 5.99299 3.52467 6.21233C3.49934 6.41899 3.5 6.67299 3.5 6.95033H4.5ZM3.892 5.46166C3.85733 5.49233 3.82533 5.52433 3.79467 5.55899L4.542 6.22233C4.54619 6.21764 4.55064 6.21385 4.55534 6.20966L3.892 5.46166ZM4.66667 10.8337H7.33333V9.83366H4.66667V10.8337Z" fill="black"/>
    </svg>
    