<svg width="32" height="32" viewBox="0 0 32 32" fill="none" xmlns="http://www.w3.org/2000/svg">
<rect width="32" height="32" rx="16" fill="#838383"/>
<path fill-rule="evenodd" clip-rule="evenodd" d="M17.8743 8.08333C17.8743 8.02808 17.8524 7.97509 17.8133 7.93602C17.7743 7.89695 17.7213 7.875 17.666 7.875H11.8327C11.2249 7.875 10.642 8.11644 10.2122 8.54621C9.78246 8.97598 9.54102 9.55888 9.54102 10.1667V21.8333C9.54102 22.4411 9.78246 23.024 10.2122 23.4538C10.642 23.8836 11.2249 24.125 11.8327 24.125H20.166C20.7738 24.125 21.3567 23.8836 21.7865 23.4538C22.2162 23.024 22.4577 22.4411 22.4577 21.8333V13.6225C22.4577 13.5672 22.4357 13.5143 22.3967 13.4752C22.3576 13.4361 22.3046 13.4142 22.2493 13.4142H18.4993C18.3336 13.4142 18.1746 13.3483 18.0574 13.2311C17.9402 13.1139 17.8743 12.9549 17.8743 12.7892V8.08333ZM18.4993 16.2083C18.6651 16.2083 18.8241 16.2742 18.9413 16.3914C19.0585 16.5086 19.1243 16.6676 19.1243 16.8333C19.1243 16.9991 19.0585 17.1581 18.9413 17.2753C18.8241 17.3925 18.6651 17.4583 18.4993 17.4583H13.4993C13.3336 17.4583 13.1746 17.3925 13.0574 17.2753C12.9402 17.1581 12.8743 16.9991 12.8743 16.8333C12.8743 16.6676 12.9402 16.5086 13.0574 16.3914C13.1746 16.2742 13.3336 16.2083 13.4993 16.2083H18.4993ZM18.4993 19.5417C18.6651 19.5417 18.8241 19.6075 18.9413 19.7247C19.0585 19.8419 19.1243 20.0009 19.1243 20.1667C19.1243 20.3324 19.0585 20.4914 18.9413 20.6086C18.8241 20.7258 18.6651 20.7917 18.4993 20.7917H13.4993C13.3336 20.7917 13.1746 20.7258 13.0574 20.6086C12.9402 20.4914 12.8743 20.3324 12.8743 20.1667C12.8743 20.0009 12.9402 19.8419 13.0574 19.7247C13.1746 19.6075 13.3336 19.5417 13.4993 19.5417H18.4993Z" fill="white"/>
<path d="M19.125 8.35334C19.125 8.2 19.2858 8.1025 19.405 8.19834C19.5058 8.28 19.5967 8.375 19.6742 8.48334L22.185 11.9808C22.2417 12.0608 22.18 12.1642 22.0817 12.1642H19.3333C19.2781 12.1642 19.2251 12.1422 19.186 12.1032C19.1469 12.0641 19.125 12.0111 19.125 11.9558V8.35334Z" fill="white"/>
</svg>
