<svg width="24" height="24" viewBox="0 0 24 24" fill="none" xmlns="http://www.w3.org/2000/svg">
    <g clip-path="url(#clip0_531_2033)">
    <path fill-rule="evenodd" clip-rule="evenodd" d="M20.4769 3.5107C20.1983 3.23207 19.8675 3.01104 19.5035 2.86025C19.1395 2.70945 18.7494 2.63184 18.3554 2.63184C17.9614 2.63184 17.5712 2.70945 17.2072 2.86025C16.8432 3.01104 16.5124 3.23207 16.2339 3.5107L14.7009 5.0437C14.1423 4.77538 13.5142 4.68716 12.9034 4.79124C12.2925 4.89532 11.7291 5.18655 11.2909 5.6247L10.5779 6.3387C10.3921 6.52442 10.2447 6.74494 10.1441 6.98764C10.0436 7.23035 9.99179 7.49048 9.99179 7.7532C9.99179 8.01591 10.0436 8.27605 10.1441 8.51875C10.2447 8.76145 10.3921 8.98197 10.5779 9.1677L4.09187 15.6527C3.81333 15.9314 3.59243 16.2623 3.44178 16.6264C3.29114 16.9905 3.21369 17.3807 3.21387 17.7747V19.5747C3.21387 19.893 3.3403 20.1982 3.56534 20.4232C3.79038 20.6483 4.09561 20.7747 4.41387 20.7747H6.21387C7.00925 20.774 7.7718 20.4575 8.33387 19.8947L14.8199 13.4107C15.0056 13.5965 15.2261 13.7439 15.4688 13.8444C15.7115 13.945 15.9717 13.9968 16.2344 13.9968C16.4971 13.9968 16.7572 13.945 16.9999 13.8444C17.2426 13.7439 17.4631 13.5965 17.6489 13.4107L18.3629 12.6957C18.801 12.2575 19.0922 11.6941 19.1963 11.0832C19.3004 10.4723 19.2122 9.84425 18.9439 9.2857L20.4769 7.7537C20.7555 7.47511 20.9765 7.14437 21.1273 6.78036C21.2781 6.41635 21.3557 6.0262 21.3557 5.6322C21.3557 5.23819 21.2781 4.84804 21.1273 4.48403C20.9765 4.12002 20.7555 3.78928 20.4769 3.5107ZM5.50687 17.0677L11.9919 10.5817L13.4059 11.9957L6.92087 18.4817C6.73337 18.6692 6.47906 18.7746 6.21387 18.7747H5.21387V17.7747C5.21392 17.5095 5.31932 17.2552 5.50687 17.0677Z" fill="black"/>
    </g>
    <defs>
    <clipPath id="clip0_531_2033">
    <rect width="24" height="24" fill="white"/>
    </clipPath>
    </defs>
    </svg>
    