<svg width="16" height="16" viewBox="0 0 16 16" fill="none" xmlns="http://www.w3.org/2000/svg">
    <path d="M11 3.625H5C4.90054 3.625 4.80516 3.66451 4.73484 3.73483C4.66451 3.80516 4.625 3.90054 4.625 4V7C4.625 7.09946 4.66451 7.19484 4.73484 7.26516C4.80516 7.33549 4.90054 7.375 5 7.375H11C11.0995 7.375 11.1948 7.33549 11.2652 7.26516C11.3355 7.19484 11.375 7.09946 11.375 7V4C11.375 3.90054 11.3355 3.80516 11.2652 3.73483C11.1948 3.66451 11.0995 3.625 11 3.625ZM10.625 6.625H5.375V4.375H10.625V6.625ZM12.5 1.625H3.5C3.26794 1.625 3.04538 1.71719 2.88128 1.88128C2.71719 2.04538 2.625 2.26794 2.625 2.5V13.5C2.625 13.7321 2.71719 13.9546 2.88128 14.1187C3.04538 14.2828 3.26794 14.375 3.5 14.375H12.5C12.7321 14.375 12.9546 14.2828 13.1187 14.1187C13.2828 13.9546 13.375 13.7321 13.375 13.5V2.5C13.375 2.26794 13.2828 2.04538 13.1187 1.88128C12.9546 1.71719 12.7321 1.625 12.5 1.625ZM12.625 13.5C12.625 13.5332 12.6118 13.5649 12.5884 13.5884C12.5649 13.6118 12.5332 13.625 12.5 13.625H3.5C3.46685 13.625 3.43505 13.6118 3.41161 13.5884C3.38817 13.5649 3.375 13.5332 3.375 13.5V2.5C3.375 2.46685 3.38817 2.43505 3.41161 2.41161C3.43505 2.38817 3.46685 2.375 3.5 2.375H12.5C12.5332 2.375 12.5649 2.38817 12.5884 2.41161C12.6118 2.43505 12.625 2.46685 12.625 2.5V13.5ZM6.125 9.25C6.125 9.37361 6.08834 9.49445 6.01967 9.59723C5.95099 9.70001 5.85338 9.78012 5.73918 9.82743C5.62497 9.87473 5.49931 9.88711 5.37807 9.86299C5.25683 9.83887 5.14547 9.77935 5.05806 9.69194C4.97065 9.60453 4.91112 9.49317 4.88701 9.37193C4.86289 9.25069 4.87527 9.12503 4.92258 9.01082C4.96988 8.89662 5.04999 8.79901 5.15277 8.73033C5.25555 8.66166 5.37639 8.625 5.5 8.625C5.66576 8.625 5.82473 8.69085 5.94194 8.80806C6.05915 8.92527 6.125 9.08424 6.125 9.25ZM8.625 9.25C8.625 9.37361 8.58834 9.49445 8.51967 9.59723C8.45099 9.70001 8.35338 9.78012 8.23918 9.82743C8.12497 9.87473 7.99931 9.88711 7.87807 9.86299C7.75683 9.83887 7.64547 9.77935 7.55806 9.69194C7.47065 9.60453 7.41112 9.49317 7.38701 9.37193C7.36289 9.25069 7.37527 9.12503 7.42258 9.01082C7.46988 8.89662 7.54999 8.79901 7.65277 8.73033C7.75555 8.66166 7.87639 8.625 8 8.625C8.16576 8.625 8.32473 8.69085 8.44194 8.80806C8.55915 8.92527 8.625 9.08424 8.625 9.25ZM11.125 9.25C11.125 9.37361 11.0883 9.49445 11.0197 9.59723C10.951 9.70001 10.8534 9.78012 10.7392 9.82743C10.625 9.87473 10.4993 9.88711 10.3781 9.86299C10.2568 9.83887 10.1455 9.77935 10.0581 9.69194C9.97065 9.60453 9.91113 9.49317 9.88701 9.37193C9.86289 9.25069 9.87527 9.12503 9.92257 9.01082C9.96988 8.89662 10.05 8.79901 10.1528 8.73033C10.2555 8.66166 10.3764 8.625 10.5 8.625C10.6658 8.625 10.8247 8.69085 10.9419 8.80806C11.0592 8.92527 11.125 9.08424 11.125 9.25ZM6.125 11.75C6.125 11.8736 6.08834 11.9945 6.01967 12.0972C5.95099 12.2 5.85338 12.2801 5.73918 12.3274C5.62497 12.3747 5.49931 12.3871 5.37807 12.363C5.25683 12.3389 5.14547 12.2794 5.05806 12.1919C4.97065 12.1045 4.91112 11.9932 4.88701 11.8719C4.86289 11.7507 4.87527 11.625 4.92258 11.5108C4.96988 11.3966 5.04999 11.299 5.15277 11.2303C5.25555 11.1617 5.37639 11.125 5.5 11.125C5.66576 11.125 5.82473 11.1908 5.94194 11.3081C6.05915 11.4253 6.125 11.5842 6.125 11.75ZM8.625 11.75C8.625 11.8736 8.58834 11.9945 8.51967 12.0972C8.45099 12.2 8.35338 12.2801 8.23918 12.3274C8.12497 12.3747 7.99931 12.3871 7.87807 12.363C7.75683 12.3389 7.64547 12.2794 7.55806 12.1919C7.47065 12.1045 7.41112 11.9932 7.38701 11.8719C7.36289 11.7507 7.37527 11.625 7.42258 11.5108C7.46988 11.3966 7.54999 11.299 7.65277 11.2303C7.75555 11.1617 7.87639 11.125 8 11.125C8.16576 11.125 8.32473 11.1908 8.44194 11.3081C8.55915 11.4253 8.625 11.5842 8.625 11.75ZM11.125 11.75C11.125 11.8736 11.0883 11.9945 11.0197 12.0972C10.951 12.2 10.8534 12.2801 10.7392 12.3274C10.625 12.3747 10.4993 12.3871 10.3781 12.363C10.2568 12.3389 10.1455 12.2794 10.0581 12.1919C9.97065 12.1045 9.91113 11.9932 9.88701 11.8719C9.86289 11.7507 9.87527 11.625 9.92257 11.5108C9.96988 11.3966 10.05 11.299 10.1528 11.2303C10.2555 11.1617 10.3764 11.125 10.5 11.125C10.6658 11.125 10.8247 11.1908 10.9419 11.3081C11.0592 11.4253 11.125 11.5842 11.125 11.75Z" fill="black"/>
    </svg>
    